<svg width="30" height="23" viewBox="0 0 30 23" fill="none" xmlns="http://www.w3.org/2000/svg">
<g clip-path="url(#clip0_3017_3147)">
<path d="M25.4126 1.9C23.4414 0.99916 21.3607 0.360394 19.2236 0C18.931 0.522981 18.6663 1.06107 18.4306 1.612C16.1538 1.26889 13.8384 1.26889 11.5616 1.612C11.3258 1.06111 11.0611 0.523025 10.7686 0C8.62982 0.364772 6.54765 1.0065 4.5746 1.909C1.08013 6.85553 -0.500382 12.9022 0.126599 18.926C2.42045 20.621 4.988 21.91 7.7176 22.737C8.33237 21.9103 8.8763 21.0332 9.3436 20.115C8.45605 19.7836 7.59941 19.3747 6.7836 18.893C6.9986 18.737 7.2086 18.577 7.4116 18.421C9.7856 19.5374 12.3767 20.1162 15.0001 20.1162C17.6235 20.1162 20.2146 19.5374 22.5886 18.421C22.7936 18.589 23.0036 18.749 23.2166 18.893C22.3991 19.3757 21.5408 19.7856 20.6516 20.118C21.1184 21.0355 21.6624 21.9116 22.2776 22.737C25.011 21.9139 27.5819 20.6257 29.8776 18.929C30.504 12.899 28.9172 6.84686 25.4126 1.9M10.0126 15.5C9.25924 15.4563 8.55343 15.1176 8.04806 14.5572C7.54269 13.9968 7.27846 13.2598 7.3126 12.506C7.29169 12.1312 7.34502 11.7559 7.46953 11.4017C7.59404 11.0475 7.78728 10.7214 8.03815 10.4421C8.28902 10.1628 8.59258 9.93581 8.93141 9.77414C9.27024 9.61246 9.63767 9.5193 10.0126 9.5C10.388 9.51786 10.7562 9.61006 11.0957 9.77125C11.4352 9.93244 11.7393 10.1594 11.9905 10.439C12.2416 10.7186 12.4348 11.0453 12.5587 11.4001C12.6827 11.7549 12.735 12.1308 12.7126 12.506C12.7475 13.26 12.4836 13.9974 11.978 14.558C11.4725 15.1186 10.7662 15.4571 10.0126 15.5M19.9796 15.5C19.226 15.4571 18.5197 15.1186 18.0142 14.558C17.5086 13.9974 17.2447 13.26 17.2796 12.506C17.2588 12.1312 17.3123 11.756 17.4368 11.4018C17.5614 11.0477 17.7546 10.7217 18.0055 10.4424C18.2563 10.1631 18.5598 9.93612 18.8986 9.7744C19.2374 9.61268 19.6047 9.51943 19.9796 9.5C20.3553 9.51693 20.7239 9.60851 21.0639 9.76939C21.4038 9.93027 21.7084 10.1572 21.9597 10.437C22.211 10.7169 22.4041 11.0439 22.5277 11.3991C22.6513 11.7543 22.7029 12.1306 22.6796 12.506C22.7151 13.2602 22.4513 13.9979 21.9456 14.5586C21.44 15.1192 20.7334 15.4576 19.9796 15.5Z" fill="white"/>
</g>
<defs>
<clipPath id="clip0_3017_3147">
<rect width="30" height="22.737" fill="white"/>
</clipPath>
</defs>
</svg>
