<svg width="18" height="19" viewBox="0 0 18 19" fill="none" xmlns="http://www.w3.org/2000/svg">
<path d="M9 0C7.21997 0 5.47991 0.527841 3.99987 1.51677C2.51983 2.50571 1.36628 3.91131 0.685088 5.55585C0.00389957 7.20038 -0.17433 9.00998 0.172937 10.7558C0.520203 12.5016 1.37737 14.1053 2.63604 15.364C3.89472 16.6226 5.49836 17.4798 7.24419 17.8271C8.99002 18.1743 10.7996 17.9961 12.4442 17.3149C14.0887 16.6337 15.4943 15.4802 16.4832 14.0001C17.4722 12.5201 18 10.78 18 9C18 6.61305 17.0518 4.32387 15.364 2.63604C13.6761 0.948212 11.387 0 9 0V0ZM4.441 9.3L4.479 9.239L6.82 5.578C6.82805 5.56625 6.83905 5.55683 6.8519 5.55068C6.86475 5.54454 6.87899 5.54189 6.89319 5.54301C6.90738 5.54412 6.92104 5.54896 6.93277 5.55704C6.9445 5.56511 6.95389 5.57614 6.96 5.589C7.39035 6.4016 7.58795 7.31725 7.531 8.235C7.42384 8.58975 7.26874 8.92821 7.07 9.241C7.043 9.291 7.014 9.341 6.982 9.39C6.97454 9.40078 6.9645 9.40954 6.9528 9.41547C6.94111 9.42141 6.92812 9.42434 6.915 9.424H4.509C4.49446 9.42422 4.48014 9.42047 4.46757 9.41315C4.455 9.40583 4.44466 9.39523 4.43767 9.38248C4.43067 9.36972 4.42729 9.35531 4.42788 9.34077C4.42846 9.32624 4.433 9.31215 4.441 9.3ZM14.876 10.56C14.8762 10.5761 14.8716 10.5919 14.8629 10.6054C14.8542 10.6189 14.8417 10.6295 14.827 10.636C14.4239 10.794 14.0616 11.0407 13.767 11.358C13.108 12.274 12.606 13.585 11.481 13.585H6.79C6.39403 13.5845 6.00204 13.5059 5.63644 13.3539C5.27083 13.2018 4.93878 12.9791 4.65925 12.6987C4.37972 12.4182 4.15819 12.0854 4.00732 11.7193C3.85646 11.3532 3.77922 10.961 3.78 10.565V10.511C3.78013 10.5005 3.78233 10.4901 3.78647 10.4805C3.79062 10.4708 3.79662 10.4621 3.80414 10.4547C3.81166 10.4474 3.82056 10.4416 3.83031 10.4377C3.84007 10.4338 3.8505 10.4319 3.861 10.432H6.475C6.48737 10.4325 6.49951 10.4355 6.51066 10.4409C6.52181 10.4462 6.53173 10.4539 6.5398 10.4633C6.54788 10.4726 6.55393 10.4836 6.55757 10.4954C6.56122 10.5072 6.56239 10.5197 6.561 10.532C6.54242 10.7043 6.57513 10.8782 6.655 11.032C6.73107 11.1855 6.84853 11.3147 6.99413 11.405C7.13973 11.4953 7.30768 11.5431 7.479 11.543H8.773V10.533H7.493C7.478 10.5327 7.46335 10.5284 7.45061 10.5205C7.43786 10.5126 7.4275 10.5014 7.42063 10.488C7.41375 10.4747 7.41062 10.4597 7.41157 10.4448C7.41252 10.4298 7.41751 10.4154 7.426 10.403C7.44 10.381 7.455 10.36 7.473 10.335C7.594 10.162 7.766 9.896 7.939 9.592C8.05918 9.384 8.16671 9.16894 8.261 8.948C8.279 8.908 8.293 8.867 8.31 8.827C8.335 8.757 8.36 8.69 8.378 8.627C8.396 8.564 8.412 8.514 8.427 8.46C8.46954 8.26627 8.49 8.06834 8.488 7.87C8.488 7.789 8.488 7.704 8.477 7.625C8.466 7.546 8.463 7.449 8.452 7.36C8.441 7.271 8.43 7.205 8.416 7.126C8.396 7.009 8.371 6.892 8.342 6.775L8.332 6.73C8.31 6.649 8.291 6.573 8.265 6.492C8.191 6.24 8.108 5.992 8.018 5.763C7.986 5.671 7.95 5.583 7.912 5.497C7.858 5.364 7.802 5.243 7.752 5.13C7.725 5.078 7.703 5.03 7.682 4.982C7.661 4.934 7.632 4.874 7.605 4.822C7.578 4.77 7.565 4.745 7.551 4.709L7.393 4.417C7.388 4.40814 7.3857 4.398 7.3864 4.38785C7.3871 4.37769 7.39076 4.36796 7.39694 4.35987C7.40311 4.35178 7.41153 4.34568 7.42114 4.34232C7.43075 4.33897 7.44113 4.33851 7.451 4.341L8.441 4.609H8.448L8.578 4.647L8.722 4.687L8.774 4.701V4.115C8.77348 4.04773 8.78624 3.98101 8.81156 3.91868C8.83688 3.85635 8.87425 3.79964 8.92155 3.75179C8.96884 3.70394 9.02511 3.6659 9.08714 3.63985C9.14917 3.6138 9.21573 3.60026 9.283 3.6C9.34973 3.60001 9.41579 3.61337 9.47727 3.6393C9.53876 3.66524 9.59443 3.70321 9.641 3.751C9.73669 3.84796 9.79023 3.97877 9.79 4.115V4.988L9.896 5.017C9.90404 5.02064 9.91174 5.02499 9.919 5.03C9.944 5.048 9.982 5.077 10.029 5.113C10.076 5.149 10.106 5.178 10.153 5.213C10.253 5.29 10.364 5.389 10.488 5.503C10.52 5.532 10.553 5.561 10.588 5.591C10.748 5.74 10.928 5.915 11.101 6.109C11.15 6.165 11.201 6.219 11.245 6.278C11.289 6.337 11.345 6.395 11.387 6.453C11.446 6.53 11.508 6.611 11.563 6.696C11.588 6.736 11.619 6.777 11.642 6.817C11.7118 6.92236 11.7762 7.03117 11.835 7.143C11.86 7.193 11.885 7.249 11.907 7.303C11.9731 7.44656 12.0237 7.59674 12.058 7.751C12.0688 7.78347 12.0762 7.81699 12.08 7.851V7.858C12.0887 7.90484 12.0934 7.95235 12.094 8C12.109 8.15471 12.1006 8.31081 12.069 8.463C12.055 8.528 12.037 8.589 12.015 8.656C11.993 8.723 11.97 8.784 11.941 8.847C11.8848 8.97761 11.8179 9.10337 11.741 9.223C11.716 9.268 11.685 9.315 11.656 9.36C11.627 9.405 11.589 9.452 11.556 9.495C11.523 9.538 11.471 9.608 11.426 9.661C11.3877 9.71565 11.3463 9.76807 11.302 9.818C11.241 9.892 11.181 9.96 11.118 10.027C11.0814 10.0718 11.0423 10.1145 11.001 10.155C10.961 10.2 10.92 10.24 10.884 10.276C10.821 10.339 10.771 10.386 10.727 10.427L10.627 10.519C10.6199 10.526 10.6115 10.5316 10.6022 10.5354C10.5929 10.5392 10.583 10.5411 10.573 10.541H9.79V11.551H10.782C11.0022 11.5507 11.2151 11.4716 11.382 11.328C11.5975 11.1401 11.8019 10.9398 11.994 10.728C12.0039 10.7165 12.0172 10.7084 12.032 10.705L14.77 9.913C14.7818 9.90996 14.7941 9.90964 14.806 9.91208C14.818 9.91452 14.8292 9.91965 14.8388 9.92707C14.8485 9.9345 14.8563 9.94403 14.8617 9.95493C14.8671 9.96583 14.8699 9.97783 14.87 9.99L14.876 10.56Z" fill="white"/>
</svg>
