<svg width="30" height="25" viewBox="0 0 30 25" fill="none" xmlns="http://www.w3.org/2000/svg">
<g clip-path="url(#clip0_3017_3150)">
<path d="M26.929 6.0682C26.947 6.3322 26.947 6.59721 26.947 6.86821C26.947 15.0012 20.756 24.3802 9.435 24.3802C6.08948 24.3825 2.81404 23.4215 0 21.6122C0.486173 21.6705 0.975346 21.7002 1.465 21.7012C4.23696 21.7033 6.92916 20.7735 9.109 19.0612C7.82469 19.0369 6.58008 18.6119 5.54915 17.8456C4.51822 17.0793 3.75249 16.01 3.359 14.7872C4.28124 14.9651 5.23199 14.9288 6.138 14.6812C4.74499 14.4002 3.49211 13.6459 2.59203 12.5462C1.69195 11.4465 1.20011 10.0693 1.2 8.6482V8.5702C2.05589 9.04686 3.01377 9.31094 3.993 9.34021C2.69099 8.46856 1.76985 7.13373 1.41691 5.60716C1.06397 4.08058 1.30572 2.47689 2.093 1.12221C3.63778 3.02313 5.56507 4.57794 7.74974 5.6857C9.9344 6.79345 12.3276 7.42938 14.774 7.55221C14.4682 6.23282 14.6056 4.84943 15.1651 3.61602C15.7245 2.38261 16.6748 1.36791 17.869 0.728894C19.0631 0.0898752 20.4345 -0.137857 21.7711 0.0809238C23.1077 0.299705 24.3349 0.952807 25.263 1.93921C26.6415 1.66718 27.9635 1.16193 29.172 0.445205C28.7115 1.86883 27.75 3.07695 26.466 3.84521C27.6857 3.70263 28.8771 3.37732 30 2.8802C29.1741 4.11711 28.1342 5.1967 26.929 6.0682V6.0682Z" fill="white"/>
</g>
<defs>
<clipPath id="clip0_3017_3150">
<rect width="30" height="24.377" fill="white"/>
</clipPath>
</defs>
</svg>
