<svg width="18" height="20" viewBox="0 0 18 20" fill="none" xmlns="http://www.w3.org/2000/svg">
<path d="M9.00098 1.622C11.401 1.622 11.689 1.631 12.638 1.674C13.2086 1.68081 13.7739 1.78567 14.309 1.984C14.6999 2.1282 15.0536 2.35817 15.344 2.657C15.6428 2.94739 15.8728 3.30106 16.017 3.692C16.2153 4.22712 16.3202 4.79235 16.327 5.363C16.37 6.312 16.379 6.597 16.379 9C16.379 11.403 16.37 11.688 16.327 12.637C16.3202 13.2076 16.2153 13.7729 16.017 14.308C15.8672 14.6961 15.6379 15.0486 15.3437 15.3427C15.0496 15.6369 14.6971 15.8662 14.309 16.016C13.7739 16.2143 13.2086 16.3192 12.638 16.326C11.689 16.369 11.405 16.378 9.00098 16.378C6.59698 16.378 6.31298 16.369 5.36398 16.326C4.79333 16.3192 4.2281 16.2143 3.69298 16.016C3.30203 15.8718 2.94837 15.6418 2.65798 15.343C2.35914 15.0526 2.12918 14.6989 1.98498 14.308C1.78668 13.7729 1.68182 13.2076 1.67498 12.637C1.63098 11.688 1.62198 11.4 1.62198 9C1.62198 6.6 1.63098 6.312 1.67398 5.363C1.68082 4.79235 1.78568 4.22713 1.98398 3.692C2.12818 3.30106 2.35814 2.94739 2.65698 2.657C2.94737 2.35817 3.30103 2.1282 3.69198 1.984C4.2271 1.78568 4.79233 1.68082 5.36298 1.674C6.31198 1.631 6.60098 1.622 9.00098 1.622ZM9.00098 0C6.55598 0 6.24898 0.01 5.28898 0.054C4.54124 0.0684945 3.8014 0.209836 3.10098 0.472C2.50183 0.69879 1.95926 1.05334 1.51098 1.511C1.0538 1.95909 0.699602 2.5013 0.472977 3.1C0.210342 3.80067 0.068659 4.54087 0.0539766 5.289C0.00997656 6.249 0.000976562 6.556 0.000976562 9C0.000976562 11.444 0.0109766 11.751 0.0549766 12.711C0.0693388 13.4591 0.210683 14.1993 0.472977 14.9C0.699602 15.4987 1.0538 16.0409 1.51098 16.489C1.95926 16.9467 2.50183 17.3012 3.10098 17.528C3.80045 17.7898 4.53925 17.9312 5.28598 17.946C6.24898 17.99 6.55598 18 9.00098 18C11.446 18 11.752 17.99 12.712 17.946C13.4587 17.9312 14.1975 17.7898 14.897 17.528C15.4943 17.2972 16.0368 16.9442 16.4899 16.4917C16.9429 16.0392 17.2965 15.497 17.528 14.9C17.7898 14.2005 17.9312 13.4617 17.946 12.715C17.99 11.751 18.001 11.444 18.001 9C18.001 6.556 17.991 6.249 17.947 5.289C17.9323 4.54087 17.7906 3.80067 17.528 3.1C17.302 2.49951 16.9478 1.95554 16.49 1.506C16.0398 1.04954 15.4955 0.696682 14.895 0.472C14.1958 0.210262 13.4574 0.0689264 12.711 0.054C11.751 0.01 11.444 0 9.00098 0Z" fill="white"/>
<path d="M8.99993 4.37793C8.08579 4.37793 7.19217 4.649 6.43208 5.15688C5.672 5.66475 5.07959 6.38661 4.72976 7.23117C4.37993 8.07573 4.2884 9.00506 4.46674 9.90164C4.64508 10.7982 5.08528 11.6218 5.73168 12.2682C6.37808 12.9146 7.20164 13.3548 8.09822 13.5331C8.9948 13.7115 9.92414 13.6199 10.7687 13.2701C11.6133 12.9203 12.3351 12.3279 12.843 11.5678C13.3509 10.8077 13.6219 9.91408 13.6219 8.99993C13.6219 7.7741 13.135 6.59847 12.2682 5.73168C11.4014 4.86489 10.2258 4.37793 8.99993 4.37793ZM8.99993 11.9999C8.40659 11.9999 7.82657 11.824 7.33322 11.4943C6.83987 11.1647 6.45536 10.6962 6.22829 10.148C6.00123 9.5998 5.94182 8.9966 6.05757 8.41466C6.17333 7.83271 6.45905 7.29817 6.87861 6.87861C7.29817 6.45905 7.83271 6.17333 8.41466 6.05757C8.9966 5.94182 9.59979 6.00123 10.148 6.22829C10.6961 6.45536 11.1647 6.83987 11.4943 7.33322C11.824 7.82657 11.9999 8.40659 11.9999 8.99993C11.9999 9.79558 11.6839 10.5586 11.1213 11.1212C10.5586 11.6839 9.79558 11.9999 8.99993 11.9999Z" fill="white"/>
<path d="M14.8841 4.19621C14.8841 4.40982 14.8208 4.61863 14.7021 4.79623C14.5834 4.97384 14.4148 5.11227 14.2174 5.19401C14.0201 5.27575 13.8029 5.29713 13.5934 5.25546C13.3839 5.21379 13.1915 5.11093 13.0405 4.95989C12.8894 4.80885 12.7865 4.61641 12.7449 4.40691C12.7032 4.19741 12.7246 3.98026 12.8063 3.78291C12.8881 3.58557 13.0265 3.4169 13.2041 3.29823C13.3817 3.17955 13.5905 3.11621 13.8041 3.11621C14.0906 3.11621 14.3653 3.23 14.5678 3.43254C14.7703 3.63508 14.8841 3.90978 14.8841 4.19621Z" fill="white"/>
</svg>
